<svg width="286" height="79" viewBox="0 0 286 79" fill="none" xmlns="http://www.w3.org/2000/svg">
<g filter="url(#filter0_d_10_24)">
<path d="M76.5638 32C76.6406 31.1562 76.436 30.4957 75.9502 30.0185C75.4644 29.5327 74.6462 29.2898 73.4957 29.2898C72.7627 29.2898 72.1491 29.375 71.6548 29.5455C71.169 29.7159 70.7897 29.9503 70.517 30.2486C70.2528 30.5469 70.0866 30.892 70.0184 31.2841C69.9417 31.5909 69.946 31.8722 70.0312 32.1278C70.1249 32.375 70.2996 32.6009 70.5553 32.8054C70.8195 33.0099 71.1647 33.1932 71.5908 33.3551C72.0255 33.517 72.5411 33.6619 73.1377 33.7898L75.1832 34.25C76.5809 34.5568 77.7528 34.9616 78.6988 35.4645C79.6533 35.9588 80.4033 36.5469 80.9488 37.2287C81.4942 37.9105 81.8522 38.6733 82.0227 39.517C82.2016 40.3608 82.2059 41.2812 82.0354 42.2784C81.7457 44 81.0766 45.4574 80.0283 46.6506C78.98 47.8438 77.6121 48.7514 75.9246 49.3736C74.2371 49.9957 72.2854 50.3068 70.0695 50.3068C67.8025 50.3068 65.8763 49.9702 64.2911 49.2969C62.7144 48.6151 61.5724 47.5753 60.865 46.1776C60.1661 44.7713 59.9957 42.9773 60.3536 40.7955H67.1036C67.0013 41.5966 67.0866 42.2699 67.3593 42.8153C67.632 43.3608 68.071 43.7741 68.6761 44.0554C69.2812 44.3366 70.0354 44.4773 70.9388 44.4773C71.7059 44.4773 72.3621 44.3835 72.9076 44.196C73.4531 44.0085 73.8835 43.7486 74.1988 43.4162C74.5141 43.0838 74.7059 42.7045 74.7741 42.2784C74.8423 41.8864 74.7741 41.5369 74.5695 41.2301C74.365 40.9233 73.9942 40.6463 73.4573 40.3991C72.9204 40.152 72.1832 39.9261 71.2457 39.7216L68.74 39.1591C66.5156 38.6477 64.8366 37.804 63.7031 36.6278C62.5695 35.4517 62.169 33.8409 62.5013 31.7955C62.7741 30.125 63.4602 28.6676 64.5596 27.4233C65.6675 26.1705 67.0738 25.1989 68.7783 24.5085C70.4914 23.8097 72.3877 23.4602 74.4673 23.4602C76.5809 23.4602 78.3494 23.8139 79.7727 24.5213C81.2045 25.2287 82.2315 26.2216 82.8536 27.5C83.4843 28.7784 83.6548 30.2784 83.365 32H76.5638ZM90.6711 45.3466L92.1029 36.9602H93.0234L98.904 30.3636H106.83L97.1654 40.642H95.1711L90.6711 45.3466ZM83.5631 50L87.9097 23.8182H94.9665L90.62 50H83.5631ZM95.6825 50L92.4609 42.2273L97.9325 37.2159L103.762 50H95.6825ZM105.395 50L108.668 30.3636H115.725L112.452 50H105.395ZM112.503 28.3182C111.549 28.3182 110.777 28.0028 110.189 27.3722C109.601 26.733 109.384 25.9744 109.537 25.0966C109.691 24.2017 110.159 23.4432 110.943 22.821C111.728 22.1903 112.597 21.875 113.551 21.875C114.514 21.875 115.282 22.1903 115.853 22.821C116.424 23.4432 116.637 24.2017 116.492 25.0966C116.355 25.9744 115.895 26.733 115.111 27.3722C114.336 28.0028 113.466 28.3182 112.503 28.3182ZM133.025 32C133.101 31.1562 132.897 30.4957 132.411 30.0185C131.925 29.5327 131.107 29.2898 129.957 29.2898C129.224 29.2898 128.61 29.375 128.116 29.5455C127.63 29.7159 127.251 29.9503 126.978 30.2486C126.714 30.5469 126.548 30.892 126.479 31.2841C126.403 31.5909 126.407 31.8722 126.492 32.1278C126.586 32.375 126.761 32.6009 127.016 32.8054C127.28 33.0099 127.626 33.1932 128.052 33.3551C128.486 33.517 129.002 33.6619 129.599 33.7898L131.644 34.25C133.042 34.5568 134.214 34.9616 135.16 35.4645C136.114 35.9588 136.864 36.5469 137.41 37.2287C137.955 37.9105 138.313 38.6733 138.484 39.517C138.663 40.3608 138.667 41.2812 138.496 42.2784C138.207 44 137.538 45.4574 136.489 46.6506C135.441 47.8438 134.073 48.7514 132.386 49.3736C130.698 49.9957 128.746 50.3068 126.53 50.3068C124.263 50.3068 122.337 49.9702 120.752 49.2969C119.175 48.6151 118.033 47.5753 117.326 46.1776C116.627 44.7713 116.457 42.9773 116.815 40.7955H123.565C123.462 41.5966 123.548 42.2699 123.82 42.8153C124.093 43.3608 124.532 43.7741 125.137 44.0554C125.742 44.3366 126.496 44.4773 127.4 44.4773C128.167 44.4773 128.823 44.3835 129.369 44.196C129.914 44.0085 130.344 43.7486 130.66 43.4162C130.975 43.0838 131.167 42.7045 131.235 42.2784C131.303 41.8864 131.235 41.5369 131.03 41.2301C130.826 40.9233 130.455 40.6463 129.918 40.3991C129.381 40.152 128.644 39.9261 127.707 39.7216L125.201 39.1591C122.976 38.6477 121.298 37.804 120.164 36.6278C119.03 35.4517 118.63 33.8409 118.962 31.7955C119.235 30.125 119.921 28.6676 121.021 27.4233C122.128 26.1705 123.535 25.1989 125.239 24.5085C126.952 23.8097 128.849 23.4602 130.928 23.4602C133.042 23.4602 134.81 23.8139 136.234 24.5213C137.665 25.2287 138.692 26.2216 139.315 27.5C139.945 28.7784 140.116 30.2784 139.826 32H133.025ZM155.007 30.3636L154.138 35.4773H141.2L142.07 30.3636H155.007ZM145.342 25.6591H152.399L149.408 43.6847C149.365 43.9574 149.374 44.1875 149.433 44.375C149.493 44.554 149.612 44.6903 149.791 44.7841C149.979 44.8693 150.226 44.9119 150.533 44.9119C150.737 44.9119 150.989 44.8864 151.287 44.8352C151.585 44.7756 151.811 44.733 151.964 44.7074L152.169 49.6676C151.811 49.7699 151.329 49.8849 150.724 50.0128C150.128 50.1491 149.433 50.2386 148.641 50.2812C146.987 50.358 145.641 50.1832 144.601 49.7571C143.57 49.331 142.854 48.6662 142.453 47.7628C142.061 46.8509 141.993 45.7131 142.249 44.3494L145.342 25.6591ZM163.812 50.358C161.681 50.358 159.926 49.9361 158.545 49.0923C157.173 48.2401 156.21 47.0554 155.656 45.5384C155.102 44.0128 154.991 42.2443 155.323 40.233C155.656 38.2216 156.35 36.4574 157.407 34.9403C158.464 33.4148 159.823 32.2301 161.485 31.3864C163.147 30.5341 165.048 30.108 167.187 30.108C169.309 30.108 171.056 30.5341 172.429 31.3864C173.809 32.2301 174.777 33.4148 175.331 34.9403C175.893 36.4574 176.008 38.2216 175.676 40.233C175.343 42.2443 174.644 44.0128 173.579 45.5384C172.514 47.0554 171.15 48.2401 169.488 49.0923C167.835 49.9361 165.943 50.358 163.812 50.358ZM164.681 45.142C165.295 45.142 165.853 44.9418 166.356 44.5412C166.867 44.1406 167.302 43.5696 167.66 42.8281C168.027 42.0866 168.295 41.2045 168.465 40.1818C168.636 39.1506 168.662 38.2685 168.542 37.5355C168.423 36.794 168.176 36.223 167.801 35.8224C167.426 35.4219 166.931 35.2216 166.318 35.2216C165.704 35.2216 165.142 35.4219 164.63 35.8224C164.119 36.223 163.684 36.794 163.326 37.5355C162.968 38.2685 162.704 39.1506 162.534 40.1818C162.363 41.2045 162.333 42.0866 162.444 42.8281C162.563 43.5696 162.811 44.1406 163.186 44.5412C163.569 44.9418 164.068 45.142 164.681 45.142ZM176.903 50L180.176 30.3636H187.028L186.414 34.0966H186.619C187.207 32.7159 187.944 31.706 188.831 31.0668C189.717 30.4276 190.684 30.108 191.733 30.108C192.039 30.108 192.333 30.1335 192.615 30.1847C192.904 30.2273 193.19 30.2869 193.471 30.3636L192.448 36.3977C192.116 36.2699 191.703 36.1804 191.208 36.1293C190.714 36.0696 190.275 36.0398 189.892 36.0398C189.21 36.0398 188.571 36.1974 187.974 36.5128C187.386 36.8196 186.883 37.2543 186.465 37.8168C186.056 38.3707 185.784 39.0227 185.647 39.7727L183.96 50H176.903ZM192.563 50L195.836 30.3636H202.535L201.921 34.0966H202.126C202.731 32.8693 203.588 31.8977 204.696 31.1818C205.804 30.4659 207.044 30.108 208.416 30.108C209.788 30.108 210.913 30.4744 211.791 31.2074C212.669 31.9318 213.112 32.8949 213.12 34.0966H213.325C213.853 32.8949 214.718 31.9318 215.92 31.2074C217.122 30.4744 218.456 30.108 219.921 30.108C221.788 30.108 223.207 30.7131 224.179 31.9233C225.159 33.1335 225.478 34.7443 225.137 36.7557L222.938 50H215.882L217.825 38.5455C217.944 37.6847 217.825 37.0114 217.467 36.5256C217.109 36.0312 216.563 35.7841 215.831 35.7841C215.106 35.7841 214.492 36.0312 213.99 36.5256C213.495 37.0114 213.188 37.6847 213.069 38.5455L211.126 50H204.376L206.319 38.5455C206.438 37.6847 206.319 37.0114 205.961 36.5256C205.603 36.0312 205.058 35.7841 204.325 35.7841C203.848 35.7841 203.413 35.8949 203.021 36.1165C202.637 36.3381 202.318 36.6577 202.062 37.0753C201.815 37.4844 201.649 37.9744 201.563 38.5455L199.62 50H192.563Z" fill="#257FF5"/>
</g>
<defs>
<filter id="filter0_d_10_24" x="55.8167" y="21.875" width="173.832" height="36.5213" filterUnits="userSpaceOnUse" color-interpolation-filters="sRGB">
<feFlood flood-opacity="0" result="BackgroundImageFix"/>
<feColorMatrix in="SourceAlpha" type="matrix" values="0 0 0 0 0 0 0 0 0 0 0 0 0 0 0 0 0 0 127 0" result="hardAlpha"/>
<feOffset dy="4"/>
<feGaussianBlur stdDeviation="2"/>
<feComposite in2="hardAlpha" operator="out"/>
<feColorMatrix type="matrix" values="0 0 0 0 0 0 0 0 0 0 0 0 0 0 0 0 0 0 0.25 0"/>
<feBlend mode="normal" in2="BackgroundImageFix" result="effect1_dropShadow_10_24"/>
<feBlend mode="normal" in="SourceGraphic" in2="effect1_dropShadow_10_24" result="shape"/>
</filter>
</defs>
</svg>
